<svg fill="#B8EBE8" xmlns="http://www.w3.org/2000/svg" viewBox="0 0 64 64"><g id="First_Aid-Bag-Medical-EmergencyHealth" data-name="First Aid-Bag-Medical-EmergencyHealth"><path d="M45.82,29H18.18a2.985,2.985,0,0,0-2.92,2.33L10.26,53H53.74l-5-21.67A2.985,2.985,0,0,0,45.82,29ZM38,43a1,1,0,0,1-1,1H35v2a1,1,0,0,1-1,1H30a1,1,0,0,1-1-1V44H27a1,1,0,0,1-1-1V39a1,1,0,0,1,1-1h2V36a1,1,0,0,1,1-1h4a1,1,0,0,1,1,1v2h2a1,1,0,0,1,1,1Z"/><rect x="24" y="11" width="8" height="2"/><path d="M4.78,40.02A13.16,13.16,0,0,0,4,44.47V53H8.2l5.11-22.12A4.956,4.956,0,0,1,18,27.02V21H13.8a3.014,3.014,0,0,0-2.82,1.97Z"/><path d="M33,39V37H31v2a1,1,0,0,1-1,1H28v2h2a1,1,0,0,1,1,1v2h2V43a1,1,0,0,1,1-1h2V40H34A1,1,0,0,1,33,39Z"/><path d="M42,11.17V27h2V14A3.014,3.014,0,0,0,42,11.17Z"/><rect x="24" y="21" width="8" height="6"/><path d="M60,53V44.47a13.16,13.16,0,0,0-.78-4.45l-6.2-17.05A3.014,3.014,0,0,0,50.2,21H46v6.02a4.956,4.956,0,0,1,4.69,3.86L55.8,53Z"/><path d="M20,27h2V11.17A3.014,3.014,0,0,0,20,14Z"/></g></svg>