<?xml version="1.0" encoding="utf-8"?>
<!-- Generator: Adobe Illustrator 19.0.0, SVG Export Plug-In . SVG Version: 6.00 Build 0)  -->
<svg version="1.1" id="_x31_-outline-expand" xmlns="http://www.w3.org/2000/svg" xmlns:xlink="http://www.w3.org/1999/xlink"
	 x="0px" y="0px" viewBox="6 -6 512 512" style="enable-background:new 6 -6 512 512;" xml:space="preserve">
<style type="text/css">
	.st0{fill:none;stroke:#000;stroke-width:3;stroke-miterlimit:10;}
</style>
<g>
	<rect x="91.2" y="41.4" class="st0" width="341.7" height="413.8"/>
	<g>
		<rect x="179.6" y="276.8" class="st0" width="164.8" height="131.4"/>
		<rect x="258.9" y="276.8" class="st0" width="6.2" height="130.5"/>
		<rect x="170.8" y="408.2" class="st0" width="182.5" height="17.2"/>
		<rect x="173.4" y="267.1" class="st0" width="177" height="9.5"/>
	</g>
	<rect x="58" y="455.2" class="st0" width="408.1" height="31.3"/>
	<rect x="85.4" y="13.4" class="st0" width="353" height="27.9"/>
	<g>
		<g>
			<path class="st0" d="M301.3,119.9v23.3c0,0.9-0.8,1.7-1.7,1.7h-24.2v24.2c0,0.9-0.8,1.7-1.7,1.7h-23.3c-0.9,0-1.7-0.8-1.7-1.7
				v-24.2h-24.2c-0.9,0-1.7-0.8-1.7-1.7v-23.3c0-0.9,0.8-1.7,1.7-1.7h24.2V94c0-0.9,0.8-1.7,1.7-1.7h23.3c0.9,0,1.7,0.8,1.7,1.7
				v24.2h24.2C300.5,118.2,301.3,119,301.3,119.9z"/>
		</g>
	</g>
</g>
</svg>
