<?xml version="1.0" encoding="utf-8"?>
<!-- Generator: Adobe Illustrator 19.0.0, SVG Export Plug-In . SVG Version: 6.00 Build 0)  -->
<svg version="1.1" id="Capa_1" xmlns="http://www.w3.org/2000/svg" xmlns:xlink="http://www.w3.org/1999/xlink" x="0px" y="0px"
	 viewBox="-33 34.6 432.4 432.4" style="enable-background:new -33 34.6 432.4 432.4;" xml:space="preserve">
<style type="text/css">
	.st0{fill:none;stroke:#FFFFFF;stroke-width:3;stroke-miterlimit:10;}
</style>
<path class="st0" d="M183.5,125.7c-61.2,0-111.2,50-111.2,111.2c0,32,14,62.8,37.6,83.6c17.6,17.6,16,55.2,15.6,55.6
	c0,2,0.4,3.6,2,5.2c1.2,1.2,3.2,2,4.8,2h102c2,0,3.6-0.8,4.8-2c1.2-1.2,2-3.2,2-5.2c0-0.4-2-38,15.6-55.6c0.4-0.4,0.8-0.8,1.2-1.2
	c23.2-21.2,36.8-51.2,36.8-82.4C294.7,175.7,244.7,125.7,183.5,125.7z"/>
<path class="st0" d="M183.1,154.1c-3.6,0-6.8,3.2-6.8,6.8s3.2,6.8,6.8,6.8c40.4,0,72.8,32.8,72.8,72.8c0,3.6,3.2,6.8,6.8,6.8
	c3.6,0,6.8-3.2,6.8-6.8C269.9,192.9,231.1,154.1,183.1,154.1z"/>
<path class="st0" d="M227.5,390.9h-88.8c-9.2,0-16.8,7.6-16.8,16.8s7.6,16.8,16.8,16.8h88.4c9.6-0.4,17.2-7.6,17.2-16.8
	S236.7,390.9,227.5,390.9z"/>
<path class="st0" d="M214.3,431.3h-62.4c-9.2,0-16.8,7.6-16.8,16.8s7.6,16.8,16.8,16.8h62.4c9.2,0,16.8-7.6,16.8-16.8
	C231.1,438.5,223.5,431.3,214.3,431.3z"/>
<path class="st0" d="M183.8,86.8V40.4"/>
<path class="st0" d="M272.3,114.5l25.6-38.4"/>
<path class="st0" d="M107.5,105.3L82.7,66.5"/>
<path class="st0" d="M53.5,158.5l-40.4-22"/>
<path class="st0" d="M319.1,170.5l40.8-22"/>
</svg>
