<svg height="512" viewBox="0 0 56 60" width="512" xmlns="http://www.w3.org/2000/svg"><g id="Page-1" fill="none" fill-rule="evenodd"><g id="025---Equipment" fill="rgb(0,0,0)" fill-rule="nonzero"><path id="Shape" d="m19 38v7c0 .5522847.4477153 1 1 1h5v-8z"/><path id="Rectangle-path" d="m19 34h14v2h-14z"/><path id="Shape" d="m32 46c.5522847 0 1-.4477153 1-1v-7h-6v8z"/><path id="Shape" d="m26 0c-.5522847 0-1 .44771525-1 1v13h-1.266c-.4970993.0004308-.9184121.3659378-.989.858l-.592 4.142h7.694l-.592-4.141c-.0701372-.4924593-.4915715-.8584978-.989-.859h-1.266v-13c0-.55228475-.4477153-1-1-1z"/><path id="Shape" d="m20 21c-.5522847 0-1 .4477153-1 1v10h14v-10c0-.5522847-.4477153-1-1-1z"/><path id="Shape" d="m3 53.5c.00000005 2.4852813 2.01471866 4.4999999 4.5 4.4999999s4.4999999-2.0147186 4.5-4.4999999v-24.5h-9zm2-2.5c0-.5522847.44771525-1 1-1s1 .4477153 1 1v2.5c0 .2761424.22385763.5.5.5.55228475 0 1 .4477153 1 1s-.44771525 1-1 1c-1.38071187 0-2.5-1.1192881-2.5-2.5z"/><path id="Shape" d="m13 2h-11c-1.1045695 0-2 .8954305-2 2s.8954305 2 2 2h2c.55228475 0 1 .44771525 1 1s-.44771525 1-1 1h-1v19h9v-19h-4c-.55228475 0-1-.44771525-1-1s.44771525-1 1-1h5c1.1045695 0 2-.8954305 2-2s-.8954305-2-2-2z"/><path id="Shape" d="m54 17h.99l.01-2c.0818929-1.0094513-.6593096-1.8987164-1.667-2h-10.666c-1.0076904.1012836-1.7488929.9905487-1.667 2v2h2v-1c0-.5522847.4477153-1 1-1s1 .4477153 1 1v1h2v-1c0-.5522847.4477153-1 1-1s1 .4477153 1 1v1h2v-1c0-.5522847.4477153-1 1-1s1 .4477153 1 1v1z"/><path id="Shape" d="m40 56c0 1.1045695.8954305 2 2 2h12c1.1045695 0 2-.8954305 2-2v-4h-16z"/><path id="Shape" d="m53.015 19h-10.03c-.1015964 1.6647317-.6872451 3.2635351-1.685 4.6-.8410162 1.1266046-1.2968502 2.4941066-1.3 3.9v2.5h16v-2.5c-.0031498-1.4058934-.4589838-2.7733954-1.3-3.9-.9977549-1.3364649-1.5834036-2.9352683-1.685-4.6z"/><path id="Shape" d="m44 41c0 .5522847-.4477153 1-1 1s-1-.4477153-1-1v-9h-2v18h2v-5c0-.5522847.4477153-1 1-1s1 .4477153 1 1v5h12v-18h-12z"/><path id="Shape" d="m33 54h-6v-8h-2v8h-6c-1.1045695 0-2 .8954305-2 2v2c0 1.1045695.8954305 2 2 2h14c1.1045695 0 2-.8954305 2-2v-2c0-1.1045695-.8954305-2-2-2zm0 4h-14v-2h14z"/></g></g></svg>