<svg xmlns="http://www.w3.org/2000/svg" viewBox="0 0 100 100"><defs><style>.cls-1{fill:#2c3a4f;}</style></defs><g id="Layer_1" data-name="Layer 1"><g id="Layer_1-2" data-name="Layer 1"><path class="cls-1" d="M89.66,88.35l-.19,0L73.4,84.19a34,34,0,0,1-5.6-1.77,6.92,6.92,0,0,1-2.55-1.73,7.51,7.51,0,0,1-1.48-3.64,29.16,29.16,0,0,1-.49-5.14.77.77,0,0,1,.76-.77h0a.76.76,0,0,1,.76.76,28,28,0,0,0,.47,4.92,6,6,0,0,0,1.14,2.89A5.56,5.56,0,0,0,68.36,81a34.84,34.84,0,0,0,5.4,1.7l16.09,4.14a.76.76,0,0,1-.19,1.5Z"/><path class="cls-1" d="M12.73,88.32a.76.76,0,0,1-.18-1.5l16.06-4.14A33.33,33.33,0,0,0,34,81a5.47,5.47,0,0,0,2-1.36,6,6,0,0,0,1.08-2.75,27.59,27.59,0,0,0,.47-4.67.76.76,0,0,1,.76-.75h0a.78.78,0,0,1,.75.78,29.45,29.45,0,0,1-.49,4.87,7.47,7.47,0,0,1-1.42,3.49,7,7,0,0,1-2.61,1.81A36.32,36.32,0,0,1,29,84.17l-16,4.13Z"/><path class="cls-1" d="M71.27,58.07A.69.69,0,0,1,71,58a.77.77,0,0,1-.48-1,47.38,47.38,0,0,0,2.72-14.74c0-.81,0-1.6,0-2.37a.77.77,0,1,1,1.53-.06c0,.79,0,1.6,0,2.43A49.33,49.33,0,0,1,72,57.55.77.77,0,0,1,71.27,58.07Z"/><path class="cls-1" d="M28.62,36.92h-.06a.78.78,0,0,1-.7-.83c1.44-16.22,9.07-24.44,22.71-24.44,13.94,0,22.2,8.4,23.9,24.29A.76.76,0,1,1,73,36.1C71.33,20.89,63.8,13.17,50.57,13.17c-12.89,0-19.82,7.54-21.19,23.06A.76.76,0,0,1,28.62,36.92Z"/><path class="cls-1" d="M31,57.91a.76.76,0,0,1-.72-.51A46.39,46.39,0,0,1,27.6,42.33c0-.86,0-1.7,0-2.52a.76.76,0,1,1,1.52.07c0,.8,0,1.61,0,2.44a44.7,44.7,0,0,0,2.54,14.57.76.76,0,0,1-.47,1A.74.74,0,0,1,31,57.91Z"/><path class="cls-1" d="M37,47a.77.77,0,0,1-.66-.38.76.76,0,0,1,.28-1c.53-.31,1.07-.6,1.62-.88L39.43,44a21.41,21.41,0,0,0,3.73-2.81c2.22-1.94,4.31-3.78,8.22-3.78,2.55,0,4.71,1.66,7,3.43A21.4,21.4,0,0,0,63.23,44l.17.07c.82.32,1.66.66,2.46,1a.76.76,0,0,1-.65,1.38c-.76-.36-1.54-.67-2.37-1l-.17-.07a22.6,22.6,0,0,1-5.22-3.31c-2.08-1.6-4-3.12-6.07-3.12-3.34,0-5.13,1.58-7.21,3.41a22.9,22.9,0,0,1-4,3L39,46c-.53.27-1.06.55-1.57.85A.75.75,0,0,1,37,47Z"/><path class="cls-1" d="M33,65a.76.76,0,0,1-.68-.42,18.62,18.62,0,0,1-2-7.84c0-4.26,1.1-7.2,3.48-9.3a.76.76,0,0,1,1.08.07.75.75,0,0,1-.07,1.07c-1.38,1.22-3,3.25-3,8.14a17.17,17.17,0,0,0,1.84,7.17.77.77,0,0,1-.33,1A.85.85,0,0,1,33,65Z"/><path class="cls-1" d="M50.89,77.79c-6.37,0-12.68-3.85-16.87-10.29a.76.76,0,1,1,1.28-.83c3.91,6,9.73,9.6,15.59,9.6s12-3.6,16-9.38A.76.76,0,0,1,68,66.7a.77.77,0,0,1,.19,1.06C63.89,74,57.27,77.79,50.89,77.79Z"/><path class="cls-1" d="M69.33,65a.89.89,0,0,1-.35-.08.77.77,0,0,1-.33-1,16.76,16.76,0,0,0,1.84-7.18c0-4.18-.91-6.94-2.85-8.67A.77.77,0,0,1,67.58,47a.76.76,0,0,1,1.08-.06C71,48.94,72,52.07,72,56.73a18.34,18.34,0,0,1-2,7.86A.76.76,0,0,1,69.33,65Z"/><path class="cls-1" d="M53.88,64.52H48.51a2.36,2.36,0,0,1-2.35-2.36V56.8a2.36,2.36,0,0,1,2.35-2.36h5.37a2.36,2.36,0,0,1,2.35,2.36v5.36A2.36,2.36,0,0,1,53.88,64.52ZM48.51,56a.83.83,0,0,0-.82.83v5.36a.83.83,0,0,0,.82.83h5.37a.83.83,0,0,0,.83-.83V56.8a.83.83,0,0,0-.83-.83Z"/><path class="cls-1" d="M58.89,48.35a.77.77,0,0,1-.51-.19c-2.23-2-4.76-4.2-7-4.2-3,0-5.13,1.88-7.36,4.16a.76.76,0,0,1-1.08,0,.77.77,0,0,1,0-1.08c1.91-2,4.52-4.63,8.45-4.63,2.79,0,5.55,2.44,8,4.59a.76.76,0,0,1,.07,1.08A.75.75,0,0,1,58.89,48.35Z"/><path class="cls-1" d="M68.59,68.09h0a2.32,2.32,0,0,1-1.3-.43,11.92,11.92,0,0,1-1.55-1.29A2.31,2.31,0,1,1,69,63.11a7.83,7.83,0,0,0,.93.78,2.32,2.32,0,0,1,.54,3.23,2.34,2.34,0,0,1-1.84,1ZM67.33,64a.82.82,0,0,0-.55.22.8.8,0,0,0,0,1.12,10.38,10.38,0,0,0,1.36,1.12.76.76,0,0,0,.45.15.78.78,0,0,0,.63-.33.8.8,0,0,0-.18-1.1,9.24,9.24,0,0,1-1.13-.94.76.76,0,0,0-.56-.24Z"/><path class="cls-1" d="M33.8,68.09a2.34,2.34,0,0,1-1.63-.68,2.25,2.25,0,0,1-.67-1.64,2.33,2.33,0,0,1,1-1.88,7.15,7.15,0,0,0,.94-.79A2.3,2.3,0,0,1,35,62.42a2.36,2.36,0,0,1,1.64.67,2.31,2.31,0,0,1,0,3.27,13,13,0,0,1-1.57,1.31,2.43,2.43,0,0,1-1.31.42ZM35,64h0a.79.79,0,0,0-.56.23,8.49,8.49,0,0,1-1.13.95.81.81,0,0,0-.33.64.79.79,0,0,0,.23.56.77.77,0,0,0,1,.09,10,10,0,0,0,1.37-1.14.8.8,0,0,0,0-1.11A.82.82,0,0,0,35,64Z"/><path class="cls-1" d="M36.58,52a2.33,2.33,0,0,1-2.22-1.67C33,45.42,30.55,41.85,27,39.68a2.3,2.3,0,0,1-1-1.47,2.27,2.27,0,0,1,.33-1.74,2.31,2.31,0,0,1,3.09-.74c4.5,2.77,7.74,7.36,9.39,13.3a2.31,2.31,0,0,1-1.58,2.84l0,0a3.09,3.09,0,0,1-.6.08Zm0-.77h0ZM28.28,36.94a.8.8,0,0,0-.67.36.84.84,0,0,0-.11.6.74.74,0,0,0,.34.49c3.84,2.37,6.54,6.24,8,11.5a.82.82,0,0,0,1,.53h0a.79.79,0,0,0,.55-1c-1.54-5.56-4.55-9.85-8.7-12.4A.86.86,0,0,0,28.28,36.94Z"/><path class="cls-1" d="M65.81,52h0a2.89,2.89,0,0,1-.6-.08A2.32,2.32,0,0,1,63.58,49v0c1.66-5.93,4.89-10.52,9.37-13.27a2.3,2.3,0,0,1,1.77-.24,2.31,2.31,0,0,1,.67,4.17c-3.54,2.18-6,5.75-7.35,10.62A2.34,2.34,0,0,1,65.81,52Zm-.76-2.52a.77.77,0,0,0,.55,1,.84.84,0,0,0,1-.54c1.45-5.24,4.14-9.11,8-11.49a.79.79,0,0,0,.24-1,.84.84,0,0,0-.48-.37.83.83,0,0,0-.6.08c-4.13,2.54-7.14,6.83-8.68,12.39Z"/></g></g></svg>