<svg xmlns="http://www.w3.org/2000/svg" viewBox="0 0 100 100"><defs><style>.cls-1{fill:none;stroke:#fff;stroke-linecap:round;stroke-linejoin:round;stroke-width:1.53px;}</style></defs><g id="Layer_1" data-name="Layer 1"><rect class="cls-1" x="15.32" y="61.86" width="60.64" height="25.84"/><rect class="cls-1" x="13.55" y="53.48" width="64.18" height="8.38"/><polyline class="cls-1" points="60.24 45.1 65.46 45.1 77.73 53.48 13.55 53.48 25.82 45.1 33.89 45.1"/><line class="cls-1" x1="57.73" y1="49.29" x2="61.52" y2="39.53"/><line class="cls-1" x1="35.42" y1="41.15" x2="32.32" y2="49.13"/><line class="cls-1" x1="27.5" y1="49.29" x2="63.43" y2="49.29"/><path class="cls-1" d="M83.18,22.21a20.35,20.35,0,0,0-1.94-1.08L64.16,13a6.63,6.63,0,0,0-2.8-.7,4.89,4.89,0,0,0-2.47.95L45.75,23.42"/><path class="cls-1" d="M54.75,26.92l.81-.56c2.51-1.73,6.43-2.56,8.51-1.08s1,3.87-1.62,4.8C61.4,30.46,54,33.39,54,33.39c-1.14.43-3.61,2.82-2.47,5.46s4.14,2.59,5.3,2.16l10.77-3.47a7.36,7.36,0,0,1,4.25-.35,12.8,12.8,0,0,0,2.94.34A25.1,25.1,0,0,0,83,36.16"/><path class="cls-1" d="M89.5,38.11H85.64a2.46,2.46,0,0,1-2.46-2.46V21.27a2.46,2.46,0,0,1,2.46-2.46H89.5"/><polyline class="cls-1" points="61.52 29.55 42.75 22.26 35.12 41.92"/></g></svg>