<svg xmlns="http://www.w3.org/2000/svg" viewBox="0 0 100 100"><defs><style>.cls-1{fill:#fff;}</style></defs><g id="Layer_1" data-name="Layer 1"><path class="cls-1" d="M76,81.78H24a7.55,7.55,0,0,1-7.54-7.54V35.87A7.55,7.55,0,0,1,24,28.33H76a7.55,7.55,0,0,1,7.54,7.54V74.24A7.55,7.55,0,0,1,76,81.78ZM24,30a5.91,5.91,0,0,0-5.9,5.91V74.24a5.91,5.91,0,0,0,5.9,5.9H76a5.91,5.91,0,0,0,5.9-5.9V35.87A5.91,5.91,0,0,0,76,30Z"/><path class="cls-1" d="M55.42,70.24H44.57a.81.81,0,0,1-.81-.82v-8H36a.82.82,0,0,1-.82-.82V49.47a.82.82,0,0,1,.82-.82h7.73v-8a.82.82,0,0,1,.81-.82H55.42a.82.82,0,0,1,.82.82v8H64a.82.82,0,0,1,.82.82V60.63a.82.82,0,0,1-.82.82H56.24v8A.81.81,0,0,1,55.42,70.24Zm-10-1.63h9.22v-8a.81.81,0,0,1,.81-.81h7.73V50.29H55.42a.82.82,0,0,1-.81-.82v-8H45.39v8a.82.82,0,0,1-.82.82H36.85v9.53h7.72a.81.81,0,0,1,.82.81Z"/><path class="cls-1" d="M66.77,29.68h-5.6a.82.82,0,0,1-.82-.82V24.18c0-1.52-.19-1.52-.84-1.52h-19c-.65,0-.84,0-.84,1.52v4.68a.82.82,0,0,1-.82.82h-5.6a.82.82,0,0,1-.82-.82V24.18c0-5.32,3.17-8.76,8.08-8.76h19c4.91,0,8.08,3.44,8.08,8.76v4.68A.82.82,0,0,1,66.77,29.68ZM62,28.05h4V24.18c0-4.46-2.41-7.12-6.44-7.12h-19c-4,0-6.44,2.66-6.44,7.12v3.87h4V24.18C38,21.56,39,21,40.49,21h19C61,21,62,21.56,62,24.18Z"/></g></svg>