<svg id="Capa_1" fill="#B8EBE8" enable-background="new 0 0 512 512" height="512" viewBox="0 0 512 512" width="512" xmlns="http://www.w3.org/2000/svg"><g><path d="m466.486 133.1h-436.429v-59.6c0-8.284-6.729-15-15.028-15-8.3 0-15.029 6.716-15.029 15v197.272c0 8.284 6.729 15 15.028 15h132.047l69.982 38.864-70.356 39.071c-22.863 2.156-40.813 21.418-40.813 44.792 0 24.814 20.225 45 45.085 45s45.085-20.186 45.085-45c0-11.994-4.735-22.898-12.425-30.972l64.332-35.726 64.332 35.726c-7.69 8.075-12.425 18.979-12.425 30.972 0 24.814 20.225 45 45.085 45s45.085-20.186 45.085-45c0-23.375-17.95-42.637-40.813-44.792l-70.356-39.071 69.982-38.864h148.112c8.3 0 15.028-6.716 15.028-15v-92.245c.005-25.048-20.413-45.427-45.509-45.427zm-315.511 290.4c-8.287 0-15.028-6.728-15.028-15 0-8.262 6.726-14.982 14.999-14.999.014 0 .029.001.043.001.009 0 .018-.001.027-.001 8.268.023 14.987 6.74 14.987 14.998 0 8.273-6.742 15.001-15.028 15.001zm193.985 0c-8.287 0-15.028-6.728-15.028-15 0-8.258 6.72-14.975 14.987-14.998.009 0 .018.001.027.001.014 0 .029-.001.043-.001 8.273.016 14.999 6.737 14.999 14.999.001 8.271-6.741 14.999-15.028 14.999zm136.983-244.973v15.908h-90.202v-31.335h74.745c8.523 0 15.457 6.92 15.457 15.427zm-210.429 15.909v-31.336h90.171v31.336zm-120.228 0v-31.336h90.171v31.336zm-121.229 0v-31.336h91.173v31.336zm217.91 113.035-39.073-21.699h78.146zm-217.91-51.698v-31.337h451.886v31.337z"/></g></svg>