<?xml version="1.0" encoding="utf-8"?>
<!-- Generator: Adobe Illustrator 19.0.0, SVG Export Plug-In . SVG Version: 6.00 Build 0)  -->
<svg version="1.1" id="_x31_-outline-expand" xmlns="http://www.w3.org/2000/svg" xmlns:xlink="http://www.w3.org/1999/xlink"
	 x="0px" y="0px" viewBox="6 -6 512 512" style="enable-background:new 6 -6 512 512;" xml:space="preserve">
<style type="text/css">
	.st0{fill:none;stroke:#000;stroke-width:3;stroke-linecap:round;stroke-miterlimit:10;}
	.st1{fill:none;stroke:#000;stroke-width:3;stroke-miterlimit:10;}
</style>
<g>
	<path class="st0" d="M350.9,244v245.2c0,4.9-4,8.8-8.8,8.8H23.5c-4.9,0-8.8-4-8.8-8.8V11.4c0-4.9,4-8.8,8.8-8.8H342
		c4.9,0,8.8,4,8.8,8.8v83.1"/>
	<path class="st1" d="M493.4,27c-16.3-16.3-42.8-16.4-59.2-0.1l0,0l-55.3,55.3l-289,289c-0.1,0.1-0.1,0.2-0.2,0.3
		c-0.7,0.7-1.2,1.5-1.6,2.4l-0.1,0.1l-35.5,82.9c-1.1,2.6-0.8,5.6,0.7,7.9s4.2,3.8,7,3.8c1.1,0,2.3-0.2,3.3-0.7l82.9-35.5l0.1-0.1
		c0.9-0.4,1.7-0.9,2.4-1.6c0.1-0.1,0.2-0.1,0.3-0.2l289-289l55.3-55.3C509.8,69.8,509.7,43.3,493.4,27z"/>
	<path class="st1" d="M278.5,74H77.1c-4.6,0-8.4,3.8-8.4,8.4s3.8,8.4,8.4,8.4h201.4c4.6,0,8.4-3.8,8.4-8.4S283.1,74,278.5,74z"/>
	<path class="st1" d="M286.9,132.8c0-4.6-3.8-8.4-8.4-8.4H77.1c-4.6,0-8.4,3.8-8.4,8.4s3.8,8.4,8.4,8.4h201.4
		C283.1,141.2,286.9,137.4,286.9,132.8z"/>
	<path class="st1" d="M77.1,174.7c-4.6,0-8.4,3.8-8.4,8.4s3.8,8.4,8.4,8.4h151.1c4.6,0,8.4-3.8,8.4-8.4s-3.8-8.4-8.4-8.4H77.1z"/>
	<line class="st1" x1="89.8" y1="371.4" x2="149" y2="430.6"/>
</g>
<line class="st0" x1="146.3" y1="375.7" x2="445" y2="77"/>
</svg>
